<?xml version="1.0" encoding="iso-8859-1"?>
<!-- Uploaded to: SVG Repo, www.svgrepo.com, Generator: SVG Repo Mixer Tools -->
<svg height="800px" width="800px" version="1.1" id="Layer_1" xmlns="http://www.w3.org/2000/svg" xmlns:xlink="http://www.w3.org/1999/xlink" 
	 viewBox="0 0 511.999 511.999" xml:space="preserve">
<g>
	<path style="fill:#3D6DEB;" d="M508.641,192.734c-9.204-28.32-35.381-47.347-65.141-47.347c-7.181,0-14.305,1.133-21.178,3.366
		c-28.31,9.199-46.548,35.198-47.3,63.386l-34.544,11.224c-13.568-22.196-35.641-38.634-61.648-44.805l0.003-36.302
		c26.577-9.424,45.67-34.805,45.67-64.575c0-37.772-30.73-68.503-68.503-68.503c-3.542,0-7.024,0.271-10.423,0.792
		c-0.009,0.002-0.018,0.003-0.026,0.005c-3.389,0.521-6.695,1.291-9.902,2.29c-0.097,0.03-0.193,0.067-0.291,0.099
		c-2.041,0.647-4.045,1.381-5.999,2.209c-0.011,0.005-0.02,0.009-0.029,0.014c-1.014,0.431-2.016,0.883-3.003,1.359
		c-0.202,0.097-0.399,0.209-0.601,0.309c-0.79,0.391-1.579,0.785-2.352,1.207c-0.107,0.058-0.209,0.123-0.315,0.181
		c-1.828,1.008-3.611,2.089-5.333,3.253c-0.04,0.027-0.078,0.056-0.117,0.084c-0.869,0.591-1.728,1.198-2.568,1.828
		c-0.298,0.224-0.585,0.463-0.88,0.691c-0.574,0.445-1.151,0.883-1.71,1.344c-0.259,0.213-0.504,0.441-0.76,0.658
		c-0.58,0.493-1.163,0.983-1.726,1.496c-0.251,0.228-0.49,0.47-0.737,0.703c-0.553,0.518-1.108,1.032-1.644,1.568
		c-0.393,0.393-0.767,0.804-1.149,1.206c-0.373,0.391-0.755,0.773-1.117,1.172c-0.624,0.687-1.227,1.393-1.824,2.104
		c-0.108,0.129-0.224,0.253-0.332,0.384c-0.446,0.54-0.869,1.098-1.298,1.652c-0.244,0.314-0.499,0.62-0.737,0.938
		c-0.393,0.524-0.763,1.066-1.14,1.601c-0.256,0.362-0.524,0.717-0.772,1.085c-0.367,0.542-0.709,1.101-1.061,1.653
		c-0.239,0.376-0.49,0.744-0.723,1.126c-1.592,2.618-3.002,5.358-4.238,8.19c-0.097,0.224-0.206,0.44-0.301,0.665
		c-0.169,0.397-0.317,0.807-0.476,1.209c-0.338,0.842-0.664,1.687-0.97,2.544c-0.527,1.481-0.997,2.987-1.422,4.512
		c-0.725,2.595-1.317,5.246-1.732,7.955c-0.317,2.061-0.527,4.156-0.653,6.273c-0.082,1.373-0.137,2.752-0.137,4.145
		c0,29.768,19.091,55.148,45.667,64.575l-0.003,36.302c-21.157,5.019-39.713,16.832-53.204,33.015
		c-3.113,3.734-5.957,7.701-8.499,11.871l-34.48-11.268c-0.737-28.202-18.98-54.22-47.3-63.423c-0.859-0.279-1.722-0.54-2.588-0.785
		c-1.734-0.489-3.48-0.91-5.24-1.26c-4.396-0.877-8.863-1.32-13.35-1.32c-29.761,0-55.938,19.027-65.141,47.349
		c-3.282,10.103-4.081,20.429-2.734,30.31c0.449,3.294,1.136,6.538,2.049,9.711c1.522,5.285,3.672,10.365,6.391,15.127
		c3.806,6.666,8.729,12.706,14.608,17.811c0.84,0.729,1.699,1.439,2.577,2.13c1.757,1.379,3.59,2.679,5.495,3.892
		c4.765,3.031,9.982,5.515,15.594,7.339c3.436,1.117,6.936,1.959,10.473,2.521c3.538,0.562,7.114,0.845,10.705,0.845
		c1.362,0,2.717-0.04,4.063-0.119c2.691-0.158,5.349-0.472,7.96-0.933c3.917-0.693,7.732-1.72,11.409-3.055
		c7.356-2.67,14.162-6.575,20.143-11.511c3.988-3.291,7.61-7.041,10.782-11.187l34.518,11.282c-0.105,1.308-0.192,2.621-0.251,3.941
		c-0.059,1.32-0.094,2.647-0.094,3.982c0,9.22,1.27,18.147,3.644,26.617c0.792,2.824,1.705,5.596,2.736,8.313
		c4.121,10.865,10.103,20.82,17.55,29.483l-21.353,29.394c-6.261-1.857-12.793-2.821-19.461-2.821
		c-8.204,0-16.247,1.484-23.773,4.273c-5.017,1.859-9.807,4.297-14.259,7.261c-1.113,0.741-2.206,1.515-3.276,2.321
		c-2.14,1.612-4.189,3.352-6.136,5.214c-2.92,2.792-5.607,5.858-8.016,9.173c-6.243,8.595-10.193,18.167-11.965,27.983
		c-0.394,2.181-0.68,4.373-0.86,6.57c-0.18,2.197-0.254,4.398-0.222,6.595c0.032,2.197,0.167,4.389,0.406,6.569
		c0.6,5.45,1.847,10.823,3.722,15.993c3,8.272,7.608,16.025,13.743,22.741c3.067,3.358,6.515,6.457,10.335,9.233
		c1.474,1.07,2.979,2.078,4.515,3.02c2.305,1.414,4.678,2.685,7.108,3.809c4.862,2.247,9.957,3.905,15.206,4.947
		c3.5,0.696,7.066,1.117,10.679,1.257c0.903,0.035,1.808,0.053,2.717,0.053c8.205,0,16.247-1.484,23.773-4.273
		c2.509-0.93,4.96-2.003,7.34-3.217c5.952-3.031,11.463-6.925,16.328-11.578c2.918-2.792,5.605-5.856,8.013-9.172
		c13.124-18.06,16.109-40.438,10.049-60.307c-2.02-6.623-5.046-12.967-9.036-18.779l21.333-29.365
		c11.737,4.915,24.609,7.64,38.109,7.64c13.428,0,26.236-2.699,37.923-7.569l21.485,29.353
		c-15.918,23.244-16.427,54.965,1.055,79.021c12.847,17.683,33.578,28.241,55.457,28.243c0.003,0,0.003,0,0.003,0
		c14.533,0,28.442-4.526,40.225-13.086c30.557-22.204,37.357-65.126,15.156-95.686c-12.85-17.683-33.583-28.24-55.46-28.24
		c-6.693,0-13.251,0.971-19.534,2.842l-21.423-29.266c14.973-17.345,24.061-39.905,24.061-64.563c0-2.702-0.14-5.372-0.352-8.021
		l34.513-11.213c12.69,16.605,32.566,26.833,54.379,26.835c0.002,0,0.003,0,0.005,0c7.178,0,14.303-1.131,21.175-3.366
		C500.582,267.382,520.312,228.66,508.641,192.734z"/>
	<path style="fill:#3D6DEB;" d="M450.546,235.62c-2.308,0.749-4.683,1.13-7.063,1.13c-9.918,0-18.642-6.346-21.711-15.788
		c-3.891-11.976,2.688-24.885,14.663-28.776c2.308-0.749,4.684-1.13,7.065-1.13c9.916,0,18.639,6.348,21.709,15.791
		C469.098,218.822,462.52,231.731,450.546,235.62z M202.713,274.817c0-29.378,23.901-53.28,53.28-53.28s53.28,23.901,53.28,53.28
		c0,29.38-23.901,53.28-53.28,53.28S202.713,304.197,202.713,274.817z M255.999,54.848c12.591,0,22.834,10.243,22.834,22.834
		s-10.243,22.834-22.834,22.834s-22.834-10.243-22.834-22.834C233.165,65.093,243.408,54.848,255.999,54.848z M61.452,235.62
		c-11.974-3.891-18.552-16.798-14.663-28.771c3.07-9.446,11.793-15.794,21.709-15.794c2.379,0,4.757,0.381,7.065,1.13
		c11.974,3.892,18.554,16.8,14.663,28.774c-3.069,9.444-11.792,15.789-21.709,15.789C66.136,236.749,63.759,236.369,61.452,235.62z
		 M126.702,452.784c-10.187-7.401-12.455-21.711-5.055-31.893c4.348-5.986,11.097-9.418,18.514-9.418
		c4.827,0,9.456,1.509,13.382,4.361c10.186,7.401,12.454,21.711,5.049,31.896c-4.346,5.984-11.094,9.415-18.509,9.415
		C135.258,457.146,130.63,455.638,126.702,452.784z M390.35,420.886c7.4,10.186,5.133,24.495-5.054,31.896
		c-3.927,2.854-8.554,4.363-13.376,4.363c-0.002,0-0.002,0-0.002,0c-7.418,0-14.166-3.433-18.514-9.417
		c-7.401-10.184-5.135-24.493,5.048-31.892c3.931-2.856,8.56-4.364,13.387-4.364C379.254,411.472,386.003,414.905,390.35,420.886z"
		/>
</g>
<g>
	<path style="fill:#5286FA;" d="M255.993,221.537c-29.378,0-53.28,23.901-53.28,53.28c0,29.38,23.901,53.28,53.28,53.28
		s53.28-23.9,53.28-53.28C309.272,245.44,285.371,221.537,255.993,221.537z"/>
	<path style="fill:#5286FA;" d="M255.999,100.516c12.591,0,22.834-10.243,22.834-22.834s-10.243-22.834-22.834-22.834
		s-22.834,10.243-22.834,22.834C233.165,90.274,243.408,100.516,255.999,100.516z"/>
	<path style="fill:#5286FA;" d="M153.542,415.833c-3.926-2.853-8.555-4.361-13.382-4.361c-7.417,0-14.166,3.433-18.514,9.418
		c-7.398,10.183-5.132,24.492,5.055,31.893c3.927,2.854,8.555,4.363,13.381,4.363c7.415,0,14.163-3.433,18.509-9.415
		C165.995,437.544,163.729,423.235,153.542,415.833z"/>
	<path style="fill:#5286FA;" d="M443.482,236.749c2.379,0,4.756-0.381,7.063-1.13c11.974-3.891,18.554-16.798,14.663-28.773
		c-3.07-9.443-11.793-15.791-21.709-15.791c-2.381,0-4.757,0.381-7.065,1.13c-11.974,3.892-18.554,16.8-14.663,28.776
		C424.841,230.405,433.566,236.749,443.482,236.749z"/>
	<path style="fill:#5286FA;" d="M371.919,457.146c4.823,0,9.449-1.509,13.376-4.363c10.187-7.401,12.455-21.711,5.054-31.896
		c-4.346-5.983-11.096-9.415-18.512-9.415c-4.827,0-9.456,1.509-13.387,4.364c-10.183,7.398-12.449,21.708-5.048,31.892
		c4.349,5.986,11.096,9.417,18.512,9.417C371.917,457.146,371.917,457.146,371.919,457.146z"/>
</g>
<path style="fill:#424EDE;" d="M202.713,274.817c0-29.378,23.901-53.28,53.28-53.28V100.516
	c-12.589-0.003-22.828-10.245-22.828-22.834c0-12.588,10.239-22.831,22.828-22.834V9.18c-37.771,0.003-68.496,30.733-68.496,68.503
	c0,29.768,19.091,55.148,45.667,64.575l-0.003,36.302c-26.039,6.177-48.139,22.647-61.703,44.886l-34.48-11.268
	c-0.737-28.202-18.98-54.22-47.3-63.423c-6.873-2.233-13.997-3.366-21.178-3.366c-29.761,0-55.938,19.027-65.141,47.349
	c-11.671,35.924,8.059,74.645,43.982,86.316c6.873,2.235,13.997,3.366,21.178,3.366c21.799,0,41.666-10.216,54.358-26.806
	l34.518,11.282c-0.21,2.617-0.347,5.253-0.347,7.923c0,24.586,9.035,47.089,23.93,64.412l-21.353,29.394
	c-6.261-1.857-12.793-2.821-19.461-2.821c-21.877,0-42.609,10.557-55.461,28.241c-22.199,30.558-15.399,73.482,15.157,95.683
	c11.782,8.561,25.691,13.087,40.226,13.087c21.878,0,42.609-10.557,55.457-28.24c17.499-24.081,16.972-55.836,1.012-79.085
	l21.333-29.365c11.737,4.915,24.609,7.64,38.109,7.64v-45.668C226.614,328.097,202.713,304.197,202.713,274.817z M90.226,220.96
	c-3.069,9.444-11.792,15.789-21.709,15.789c-2.379,0-4.757-0.381-7.065-1.13c-11.974-3.891-18.554-16.798-14.663-28.77
	c3.07-9.446,11.793-15.794,21.709-15.794c2.379,0,4.757,0.381,7.065,1.13C87.537,196.079,94.115,208.986,90.226,220.96z
	 M158.593,447.73c-4.346,5.984-11.094,9.415-18.509,9.415c-4.826,0-9.453-1.509-13.381-4.363
	c-10.187-7.401-12.455-21.711-5.055-31.893c4.348-5.986,11.097-9.417,18.514-9.417c4.827,0,9.456,1.509,13.382,4.361
	C163.729,423.235,165.995,437.544,158.593,447.73z"/>
<g>
	<path style="fill:#6E76E5;" d="M202.713,274.817c0,29.38,23.901,53.28,53.28,53.28V221.537
		C226.614,221.537,202.713,245.44,202.713,274.817z"/>
	<path style="fill:#6E76E5;" d="M233.165,77.682c0,12.589,10.239,22.831,22.828,22.834V54.848
		C243.403,54.852,233.165,65.094,233.165,77.682z"/>
	<path style="fill:#6E76E5;" d="M75.563,192.186c-2.308-0.749-4.684-1.13-7.065-1.13c-9.916,0-18.639,6.348-21.709,15.794
		c-3.891,11.971,2.688,24.88,14.663,28.77c2.308,0.749,4.684,1.13,7.065,1.13c9.918,0,18.64-6.345,21.709-15.789
		C94.115,208.986,87.537,196.079,75.563,192.186z"/>
	<path style="fill:#6E76E5;" d="M153.542,415.833c-3.926-2.853-8.555-4.361-13.382-4.361c-7.417,0-14.166,3.433-18.514,9.417
		c-7.398,10.184-5.132,24.492,5.055,31.893c3.927,2.854,8.555,4.363,13.381,4.363c7.415,0,14.163-3.433,18.509-9.415
		C165.995,437.544,163.729,423.235,153.542,415.833z"/>
</g>
</svg>